<?xml version="1.0" encoding="utf-8"?>
<!-- Generator: Adobe Illustrator 25.2.3, SVG Export Plug-In . SVG Version: 6.00 Build 0)  -->
<svg version="1.1" id="Laag_1" xmlns="http://www.w3.org/2000/svg" xmlns:xlink="http://www.w3.org/1999/xlink" x="0px" y="0px"
	 viewBox="0 0 155 47" style="enable-background:new 0 0 155 47;" xml:space="preserve">
<style type="text/css">
	.st0{fill:#079AE1;}
	.st1{fill:#FABC09;}
</style>
<desc>Created with Sketch.</desc>
<g id="surface1">
	<path class="st0" d="M46.5,18.3c-0.3,0.2-0.4,0.5-0.4,0.9s0.2,0.7,0.5,0.9c0.3,0.2,1.1,0.5,2.3,0.8c1.2,0.3,2.1,0.7,2.8,1.3
		c0.7,0.6,1,1.4,1,2.6s-0.4,2-1.3,2.7c-0.8,0.7-2,1.1-3.3,1.1c-2,0-3.8-0.7-5.4-2.2l1.7-2c1.4,1.2,2.6,1.8,3.8,1.8
		c0.5,0,0.9-0.1,1.2-0.3c0.3-0.2,0.4-0.5,0.4-0.9c0-0.4-0.2-0.7-0.5-0.9s-0.9-0.4-1.9-0.7c-1.5-0.3-2.5-0.8-3.2-1.4
		c-0.7-0.6-1-1.4-1-2.6c0-1.2,0.4-2.1,1.3-2.8c0.9-0.6,1.9-1,3.2-1c0.8,0,1.7,0.1,2.5,0.4s1.6,0.7,2.2,1.2l-1.4,2
		c-1.1-0.8-2.2-1.2-3.4-1.2C47.2,18,46.8,18.1,46.5,18.3"/>
	<path class="st0" d="M55,17.5c-0.3-0.3-0.5-0.7-0.5-1.1c0-0.4,0.2-0.8,0.5-1.1c0.3-0.3,0.7-0.5,1.1-0.5c0.4,0,0.8,0.2,1.1,0.5
		c0.3,0.3,0.5,0.7,0.5,1.1c0,0.4-0.2,0.8-0.5,1.1c-0.3,0.3-0.7,0.5-1.1,0.5C55.7,17.9,55.3,17.8,55,17.5 M57.5,28.4h-2.7v-9.7h2.7
		V28.4z"/>
	<path class="st0" d="M62.7,23v5.4H60v-9.7h2.7v1.1c0.8-0.8,1.7-1.2,2.7-1.2s1.9,0.4,2.6,1.1c0.7,0.7,1,1.7,1,2.9v5.9h-2.7v-5.5
		c0-1.5-0.5-2.2-1.6-2.2c-0.5,0-1,0.2-1.4,0.6C62.9,21.7,62.7,22.2,62.7,23"/>
	<path class="st0" d="M74.6,20.6V25c0,0.4,0.1,0.7,0.3,0.9c0.2,0.2,0.4,0.3,0.7,0.3c0.5,0,0.9-0.2,1.3-0.7l1,1.9
		c-0.8,0.8-1.7,1.1-2.6,1.1c-0.9,0-1.7-0.3-2.4-0.9c-0.6-0.6-1-1.4-1-2.5v-4.5h-1.1v-1.9h1.1v-2.9h2.7v2.9h2.3v1.9H74.6z"/>
	<path class="st0" d="M79.2,21.8h6.4v2.4h-6.4V21.8z"/>
	<path class="st0" d="M97.1,15.8h2.8v12.6h-2.8l-6-7.9v7.9h-2.8V15.8H91l6.2,8.1V15.8z"/>
	<path class="st0" d="M103,17.5c-0.3-0.3-0.5-0.7-0.5-1.1c0-0.4,0.2-0.8,0.5-1.1s0.7-0.5,1.1-0.5s0.8,0.2,1.1,0.5
		c0.3,0.3,0.5,0.7,0.5,1.1c0,0.4-0.2,0.8-0.5,1.1c-0.3,0.3-0.7,0.5-1.1,0.5S103.3,17.8,103,17.5 M105.4,28.4h-2.7v-9.7h2.7V28.4z"/>
	<path class="st0" d="M110.7,28.4H108V15h2.7v6.8l3-3.2h3.4l-3.7,3.9l3.8,5.8H114l-2.5-3.7l-0.9,0.9V28.4z"/>
	<path class="st0" d="M121.4,28.4h-2.7V15h2.7V28.4z"/>
	<path class="st0" d="M132.1,28.4h-2.5v-1.2c-0.7,0.9-1.6,1.3-2.6,1.3c-1,0-1.9-0.3-2.6-0.9c-0.7-0.6-1-1.4-1-2.4
		c0-1,0.4-1.7,1.1-2.2c0.7-0.5,1.7-0.7,2.9-0.7h2v-0.1c0-1-0.5-1.5-1.6-1.5c-0.5,0-1,0.1-1.5,0.3c-0.5,0.2-1,0.4-1.3,0.7l-1.2-1.7
		c1.3-0.9,2.7-1.4,4.3-1.4c1.2,0,2.1,0.3,2.9,0.9c0.7,0.6,1.1,1.5,1.1,2.8V28.4z M129.4,24.7v-0.5h-1.7c-1.1,0-1.6,0.3-1.6,1
		c0,0.3,0.1,0.6,0.4,0.8c0.3,0.2,0.6,0.3,1.1,0.3c0.5,0,0.9-0.1,1.3-0.4C129.2,25.6,129.4,25.2,129.4,24.7"/>
	<path class="st0" d="M142.8,28.4h-2.5v-1.2c-0.7,0.9-1.6,1.3-2.6,1.3c-1,0-1.9-0.3-2.6-0.9c-0.7-0.6-1-1.4-1-2.4
		c0-1,0.4-1.7,1.1-2.2c0.7-0.5,1.7-0.7,2.9-0.7h2v-0.1c0-1-0.5-1.5-1.6-1.5c-0.5,0-1,0.1-1.5,0.3c-0.5,0.2-1,0.4-1.3,0.7l-1.2-1.7
		c1.3-0.9,2.7-1.4,4.3-1.4c1.2,0,2.1,0.3,2.9,0.9c0.7,0.6,1.1,1.5,1.1,2.8V28.4z M140.1,24.7v-0.5h-1.7c-1.1,0-1.6,0.3-1.6,1
		c0,0.3,0.1,0.6,0.4,0.8c0.3,0.2,0.6,0.3,1.1,0.3c0.5,0,0.9-0.1,1.3-0.4C139.9,25.6,140.1,25.2,140.1,24.7"/>
	<path class="st0" d="M152.5,25.4c0,1-0.4,1.7-1.1,2.3s-1.6,0.9-2.7,0.9c-0.7,0-1.5-0.1-2.2-0.4c-0.8-0.3-1.5-0.6-2.1-1.1l1.2-1.7
		c1,0.8,2.1,1.2,3.2,1.2c0.3,0,0.6-0.1,0.8-0.2c0.2-0.1,0.3-0.3,0.3-0.5c0-0.2-0.1-0.4-0.4-0.6c-0.3-0.2-0.7-0.4-1.2-0.5
		c-0.5-0.2-0.9-0.3-1.2-0.4c-0.3-0.1-0.6-0.3-1-0.5c-0.7-0.5-1.1-1.1-1.1-2s0.4-1.6,1.1-2.2c0.7-0.6,1.6-0.8,2.8-0.8
		c1.1,0,2.3,0.4,3.4,1.2l-1,1.8c-0.8-0.6-1.7-0.9-2.5-0.9c-0.8,0-1.2,0.2-1.2,0.7c0,0.3,0.1,0.4,0.4,0.6c0.3,0.1,0.7,0.3,1.3,0.5
		c0.6,0.2,1,0.3,1.3,0.4c0.3,0.1,0.6,0.3,0.9,0.5C152.2,23.7,152.5,24.4,152.5,25.4"/>
	<path class="st0" d="M8.8,28.9L0,18.6L13.2,0l4.4,1.5L8.8,28.9z"/>
	<path class="st0" d="M9.6,28.1l8.5-26.4c0,0,7.3,2.4,8.6,2.8c2,0.6,2.8,1.8,2.8,1.8L9.6,28.1z"/>
	<path class="st1" d="M35.2,28.8c-0.2-0.8-3.3-16.1-3.9-18.9C30.6,7.3,30,6.8,30,6.8l-20.2,22H35.2z"/>
	<path class="st0" d="M38.3,46.9c0.2,0,0.4-0.2,0.4-0.4c0,0,0-0.1,0-0.1h0l-3.4-17H9.3L38,46.9C38.1,46.9,38.2,46.9,38.3,46.9"/>
</g>
</svg>
