<!-- Generated by IcoMoon.io -->
<svg version="1.1" xmlns="http://www.w3.org/2000/svg" width="32" height="32" viewBox="0 0 32 32">
<title>facebook</title>
<path d="M30.227 0h-28.453c-0.976 0.007-1.767 0.797-1.773 1.773v28.453c0.007 0.976 0.797 1.767 1.773 1.773h15.32v-12.373h-4.16v-4.84h4.16v-3.56c0-4.133 2.52-6.387 6.227-6.387 1.24 0 2.48 0 3.72 0.187v4.307h-2.547c-2.013 0-2.4 0.96-2.4 2.36v3.080h4.8l-0.627 4.84h-4.173v12.387h8.133c0.976-0.007 1.767-0.797 1.773-1.773v-28.453c-0.007-0.976-0.797-1.767-1.773-1.773z" fill="#8c99b3"></path>
</svg>
