<!-- Generated by IcoMoon.io -->
<svg version="1.1" xmlns="http://www.w3.org/2000/svg" width="32" height="32" viewBox="0 0 32 32">
<title>instagram</title>
<path d="M16 0c-4.345 0-4.891 0.019-6.597 0.096-1.703 0.077-2.867 0.348-3.883 0.744-1.052 0.409-1.944 0.956-2.833 1.845-0.891 0.889-1.437 1.781-1.847 2.835-0.396 1.019-0.667 2.181-0.744 3.884-0.077 1.705-0.096 2.251-0.096 6.596s0.019 4.891 0.096 6.597c0.077 1.703 0.348 2.867 0.744 3.883 0.409 1.053 0.956 1.945 1.845 2.835s1.781 1.436 2.833 1.845c1.019 0.396 2.181 0.667 3.884 0.744 1.707 0.077 2.252 0.096 6.597 0.096s4.891-0.019 6.597-0.096c1.703-0.077 2.867-0.348 3.883-0.744 1.053-0.409 1.945-0.956 2.835-1.845s1.436-1.781 1.845-2.835c0.396-1.017 0.667-2.18 0.744-3.883 0.077-1.707 0.096-2.252 0.096-6.597s-0.019-4.891-0.096-6.597c-0.077-1.703-0.348-2.867-0.744-3.884-0.409-1.052-0.956-1.944-1.845-2.833s-1.781-1.436-2.835-1.845c-1.017-0.396-2.18-0.667-3.883-0.744-1.707-0.077-2.252-0.096-6.597-0.096zM21.413 2.932l0.284 0.011 0.768 0.033c1.56 0.071 2.407 0.332 2.971 0.551 0.747 0.291 1.28 0.637 1.84 1.197s0.907 1.093 1.197 1.84c0.219 0.564 0.48 1.411 0.551 2.971l0.033 0.768 0.011 0.283c0.032 0.891 0.045 1.769 0.048 3.895v3.040c-0.003 2.125-0.016 3.004-0.048 3.893l-0.011 0.284-0.033 0.768c-0.072 1.56-0.332 2.407-0.551 2.971-0.291 0.747-0.637 1.28-1.197 1.84s-1.093 0.907-1.84 1.197c-0.564 0.219-1.411 0.48-2.971 0.551-1.461 0.067-2.037 0.088-4.947 0.093h-3.039c-2.908-0.005-3.484-0.027-4.945-0.093-1.56-0.071-2.407-0.332-2.971-0.551-0.747-0.291-1.28-0.637-1.84-1.197s-0.907-1.093-1.197-1.84c-0.219-0.564-0.48-1.411-0.551-2.971l-0.033-0.768-0.011-0.283c-0.033-0.891-0.045-1.769-0.048-3.895v-3.040c0.003-2.125 0.015-3.004 0.048-3.893l0.011-0.284 0.033-0.768c0.071-1.56 0.332-2.407 0.551-2.971 0.291-0.747 0.637-1.28 1.197-1.84s1.093-0.907 1.84-1.197c0.564-0.219 1.411-0.48 2.971-0.551 1.463-0.067 2.037-0.088 4.947-0.093h3.039c2.125 0.004 3.004 0.016 3.893 0.049zM16 7.784c-4.537 0-8.216 3.679-8.216 8.216s3.679 8.216 8.216 8.216 8.216-3.679 8.216-8.216-3.679-8.216-8.216-8.216zM16 10.667c2.947 0 5.333 2.387 5.333 5.333s-2.387 5.333-5.333 5.333-5.333-2.387-5.333-5.333 2.387-5.333 5.333-5.333zM24.541 5.539c-1.061 0-1.92 0.86-1.92 1.92 0 1.061 0.859 1.92 1.92 1.92 1.060 0 1.92-0.859 1.92-1.92 0-1.060-0.86-1.92-1.92-1.92z"  fill="#8c99b3"></path>
</svg>
