<!-- Generated by IcoMoon.io -->
<svg version="1.1" xmlns="http://www.w3.org/2000/svg" width="32" height="32" viewBox="0 0 32 32">
<title>youtube</title>
<path d="M31.325 8.831c-0.371-1.377-1.447-2.453-2.823-2.823-2.492-0.675-12.503-0.675-12.503-0.675s-10.011 0-12.503 0.675c-1.376 0.371-2.452 1.445-2.823 2.823-0.465 2.54-0.691 5.12-0.673 7.703-0.017 2.583 0.208 5.16 0.673 7.701 0.371 1.377 1.447 2.453 2.823 2.823 2.492 0.676 12.503 0.676 12.503 0.676s10.011 0 12.503-0.675c1.376-0.371 2.452-1.445 2.823-2.823 0.465-2.54 0.691-5.12 0.673-7.701 0.017-2.584-0.208-5.163-0.673-7.703zM12.8 21.332v-9.599l8.308 4.8-8.307 4.8z"  fill="#8c99b3"></path>
</svg>
