<?xml version="1.0" encoding="UTF-8" standalone="no"?>
<!DOCTYPE svg PUBLIC "-//W3C//DTD SVG 1.1//EN" "http://www.w3.org/Graphics/SVG/1.1/DTD/svg11.dtd">
<svg xmlns="http://www.w3.org/2000/svg">
<metadata>Generated by Fontastic.me</metadata>
<defs>
<font id="safir-web-portal" horiz-adv-x="512">
<font-face font-family="safir-web-portal" units-per-em="512" ascent="480" descent="-32"/>
<missing-glyph horiz-adv-x="512"/>

<glyph glyph-name="flaticon" unicode="" d="M256 512c141 0 256-115 256-256 0-141-115-256-256-256-141 0-256 115-256 256 0 141 115 256 256 256z m0-480c124 0 224 100 224 224 0 124-100 224-224 224-124 0-224-100-224-224 0-124 100-224 224-224z m25 273l0 0c7 0 12-5 12-12l0-148c0-7-5-12-12-12l-50 0c-7 0-12 5-12 12l0 148c0 7 5 12 12 12z m-99-74c7 0 12-5 12-12l0-74c0-7-5-12-12-12l-50 0c-6 0-12 5-12 12l0 74c0 7 6 12 12 12z m198 148l0 0c6 0 12-5 12-12l0-222c0-7-6-12-12-12l-50 0c-7 0-12 5-12 12l0 222c0 7 5 12 12 12z"/>
<glyph glyph-name="flaticon-1" unicode="" d="M256 512c141 0 256-115 256-256 0-141-115-256-256-256-141 0-256 115-256 256 0 141 115 256 256 256z m0-480c124 0 224 100 224 224 0 124-100 224-224 224-124 0-224-100-224-224 0-124 100-224 224-224z m55 140c7 5 17 3 22-4 5-7 3-17-4-22-17-12-37-18-57-18-47 0-87 33-104 80l-24 0c-9 0-16 7-16 16 0 9 7 16 16 16l17 0c0 5-1 11-1 16 0 5 1 11 1 16l-17 0c-9 0-16 7-16 16 0 9 7 16 16 16l24 0c17 47 57 80 104 80 20 0 40-6 57-18 7-5 9-15 4-22-5-7-15-9-22-4-12 8-25 12-39 12-29 0-55-19-69-48l69 0c9 0 16-7 16-16 0-9-7-16-16-16l-79 0c0-5-1-11-1-16 0-5 1-11 1-16l63 0c9 0 16-7 16-16 0-9-7-16-16-16l-53 0c14-29 40-48 69-48 14 0 27 4 39 12z"/>
<glyph glyph-name="flaticon-2" unicode="" d="M256 512c141 0 256-115 256-256 0-141-115-256-256-256-141 0-256 115-256 256 0 141 115 256 256 256z m0-478c123 0 222 99 222 222 0 123-99 222-222 222-123 0-222-99-222-222 0-123 99-222 222-222z m17 237c37-8 65-41 65-80 0-40-28-73-65-81l0-26c0-10-8-17-17-17-9 0-17 7-17 17l0 26c-21 5-40 17-52 36-5 7-3 18 5 23 8 5 18 3 24-5 5-9 14-15 23-19l0 96c-37 8-65 41-65 80 0 40 28 73 65 81l0 26c0 10 8 17 17 17 9 0 17-7 17-17l0-26c21-5 40-17 52-36 5-7 3-18-5-23-8-5-18-3-24 5-5 9-14 15-23 19z m-66 50c0-20 14-38 32-45l0 91c-18-7-32-25-32-46z m66-176c18 7 32 25 32 46 0 20-14 38-32 45z"/>
<glyph glyph-name="flaticon-3" unicode="" d="M256 512c141 0 256-115 256-256 0-141-115-256-256-256-141 0-256 115-256 256 0 141 115 256 256 256z m0-480l0 0c124 0 224 100 224 224 0 124-100 224-224 224-124 0-224-100-224-224 0-124 100-224 224-224z m-107 200c0 0 0 0 0 0-1 0-2 1-3 1 0 1 0 2 0 3 0 0 0 0 0 1l16 46c1 1 2 2 4 2 0 0 0 0 0 0l63 0c0 0 0 0 0 0 1 0 3-1 3-2l17-46c0 0 0-1 0-1 0 0 0 0 0 0 0-2-1-4-3-4z m21 26c0 0 0-1 0-1 0-1 1-3 2-3 0-1 1-1 1-1 0 0 0 0 0 0 2 0 3 1 4 3l4 12c0 0 0 1 0 1 0 2-1 3-2 3-1 1-1 1-1 1-2 0-3-1-4-3z m99 25l0 0c1 1 2 2 4 2 0 0 0 0 0 0l63 0c1 0 3-1 3-2l17-46c0 0 0-1 0-1 0 0 0 0 0 0 0-2-2-4-3-4l-97 0c-1 0-2 1-3 1 0 1-1 2-1 3 0 0 0 0 1 1z m8-25c0 0 0-1 0-1 0-1 1-3 2-3 0-1 1-1 1-1 0 0 0 0 0 0 2 0 3 1 3 3l5 12c0 0 0 1 0 1 0 2-1 3-2 3-1 1-1 1-2 1-1 0-3-1-3-3z m-93-44l17-46c0 0 0-1 0-1 0-2-1-4-3-4 0 0 0 0 0 0l-97 0c-1 0-2 1-3 2 0 0 0 1 0 2 0 0 0 1 0 1l17 46c0 2 1 3 3 3l63 0c1 0 3-1 3-3z m-51-15l0 0c0 0 0 1 0 1 0 2-1 3-2 4-1 0-1 0-2 0-1 0-2-1-3-2l-4-13c0 0 0-1 0-1 0-1 1-3 2-3 0 0 1 0 1 0 0 0 0 0 0 0 2 0 3 1 4 2z m281-31l0 0c0 0 0-1 0-1 0-2-1-4-3-4 0 0 0 0 0 0l-97 0c-1 0-2 1-3 2 0 0 0 1 0 2 0 0 0 1 0 1l17 46c0 2 2 3 3 3l63 0c2 0 3-1 3-3z m-68 31l0 0c0 0 0 1 0 1 0 2-1 3-2 4-1 0-1 0-1 0-2 0-3-1-4-2l-4-13c0 0 0-1 0-1 0-1 1-3 2-3 1 0 1 0 1 0 0 0 1 0 1 0 1 0 2 1 3 2z m-55 15l16-46c1 0 1-1 1-1 0-2-2-4-4-4 0 0 0 0 0 0l-96 0c-1 0-3 1-3 2-1 0-1 1-1 2 0 0 0 1 0 1l17 46c1 2 2 3 3 3l64 0c1 0 2-1 3-3z m-52-15l0 0c1 0 1 1 1 1 0 2-1 3-3 4 0 0-1 0-1 0-1 0-3-1-3-2l-4-13c-1 0-1-1-1-1 0-1 1-3 3-3 0 0 0 0 1 0 0 0 0 0 0 0 1 0 3 1 3 2z m-31 96l0 0c0 0 0 0 0 0-1 0-3 1-3 2-1 0-1 1-1 2 0 0 0 1 0 1l17 46c1 2 2 3 3 3l64 0c1 0 2-1 3-3l16-46c1 0 1-1 1-1 0-2-2-4-4-4 0 0 0 0 0 0z m21 26l0 0c-1 0-1-1-1-1 0-1 1-3 3-3 0 0 0 0 1 0 0 0 0 0 0 0 1 0 3 1 3 2l4 12c1 0 1 1 1 1 0 2-1 3-3 4 0 0-1 0-1 0-1 0-3-1-3-3z"/>
<glyph glyph-name="flaticon-4" unicode="" d="M506 506c8-8 8-21 0-29l-471-471c-4-4-9-6-14-6-6 0-11 2-15 6-8 8-8 21 0 29l471 471c8 8 21 8 29 0z m0-471c8-8 8-21 0-29-4-4-9-6-15-6-5 0-10 2-14 6l-471 471c-8 8-8 21 0 29 8 8 21 8 29 0z"/>
<glyph glyph-name="flaticon-5" unicode="" d="M384 512c6 0 10-5 10-11l0-78c0-5-4-10-10-10l-45 0c-31 0-36-12-36-36l0-49 78 0c3 0 5-1 7-3 2-2 3-5 3-8l0-84c0-5-4-10-10-10l-78 0 0-213c0-5-5-10-11-10l-87 0c-6 0-10 5-10 10l0 213-67 0c-6 0-10 5-10 10l0 84c0 6 4 11 10 11l67 0 0 58c0 77 48 126 123 126z"/>
<glyph glyph-name="flaticon-6" unicode="" d="M160 31c-3-4-7-5-11-5-5 0-8 1-12 5-6 6-6 16 0 23l203 202-203 202c-6 7-6 17 0 23 7 7 17 7 23 0l214-213c7-7 7-17 0-24z"/>
<glyph glyph-name="flaticon-7" unicode="" d="M256 512c141 0 256-115 256-256 0-141-115-256-256-256-141 0-256 115-256 256 0 141 115 256 256 256z m143-171c7 9 6 21-2 28-8 7-21 7-28-1l-145-164-84 67c-8 7-21 6-27-3-7-8-6-21 3-27l98-79c4-3 8-4 12-4 6 0 11 2 15 6z"/>
<glyph glyph-name="flaticon-8" unicode="" d="M437 320c6 0 11-5 11-11l0-266c0-24-19-43-43-43l-298 0c-24 0-43 19-43 43l0 266c0 6 5 11 11 11l32 0 0 43c0 82 67 149 149 149 82 0 149-67 149-149l0-43z m-149-223l-7 61c11 8 18 20 18 34 0 24-19 43-43 43-24 0-43-19-43-43 0-14 7-26 18-34l-7-61c0-3 1-6 3-8 2-2 5-4 8-4l42 0c3 0 6 2 8 4 2 2 3 5 3 8z m53 223l0 43c0 47-38 85-85 85-47 0-85-38-85-85l0-43z"/>
<glyph glyph-name="flaticon-9" unicode="" d="M495 46c8-8 8-21 0-29-8-8-21-8-29 0l-118 118c-35-30-81-47-130-47-115 0-207 92-207 206 0 114 92 207 207 207 114 0 206-93 206-207 0-49-18-95-47-130z m-277 83c91 0 165 74 165 165 0 92-74 166-165 166-92 0-166-74-166-166 0-91 74-165 166-165z"/>
<glyph glyph-name="flaticon-10" unicode="" d="M302 184c-31-13-64-19-101-19-16 0-33 1-50 4-24-17-50-29-80-36-6-2-15-4-24-5l-1 0c-2 0-4 1-6 2-2 2-3 4-3 6 0 1 0 1 0 2 0 1 0 1 0 2 0 1 0 1 0 2l1 1c0 0 0 1 1 2 1 1 1 1 1 1 0 0 1 1 1 2 1 1 2 1 2 1 1 1 3 3 6 7 4 4 6 6 8 8 1 2 3 5 6 9 3 3 5 7 7 11 2 4 4 8 6 12-24 14-42 31-56 51-13 20-20 41-20 64 0 26 9 51 27 73 18 23 42 41 73 54 31 13 65 19 101 19 37 0 70-6 101-19 31-13 56-31 73-54 18-22 27-47 27-73 0-27-9-51-27-74-17-22-42-40-73-53z m-160 24l15-3c15-3 30-4 44-4 29 0 57 5 82 15 25 10 45 23 60 40 15 17 23 35 23 55 0 19-8 37-23 54-15 17-35 31-60 41-25 10-53 15-82 15-29 0-56-5-82-15-25-10-45-24-60-41-15-17-22-35-22-54 0-16 5-31 15-45 10-15 24-27 42-38l28-16-10-24c6 4 12 8 18 11z m350-34c-14-20-32-37-56-51 2-4 4-9 6-12 2-4 4-8 7-11 3-4 5-7 6-9 2-2 4-5 8-8 3-4 5-6 6-7 1 0 1-1 2-2 0 0 1-1 1-1 0 0 1-1 1-1 0-1 1-2 1-2l1-1c0 0 0-1 0-2 1-1 1-2 0-2 0 0 0-1 0-2 0-3-2-5-4-6-1-2-4-2-6-2-9 1-18 3-24 4-30 8-56 20-80 37-17-3-34-5-50-5-52 0-97 13-135 38 11-1 19-1 25-1 31 0 60 4 88 13 29 8 54 21 76 37 24 17 42 37 55 60 12 23 19 47 19 73 0 15-2 29-7 43 25-13 44-30 59-51 14-20 21-42 21-65 0-23-7-44-20-64z"/>
<glyph glyph-name="flaticon-11" unicode="" d="M256 262c-57 0-103 56-103 125 0 69 15 125 103 125 88 0 103-56 103-125 0-69-46-125-103-125z m-195-192c0 2 0 5 0 0z m390-3c0 8 0 1 0 0z m-1 8c1-7 1-9 1-8 0-2 0-5 0-9 0 0-29-58-195-58-166 0-195 58-195 58 0 6 0 10 0 12 0-1 0 0 1 9 2 118 18 152 138 173 0 0 17-22 56-22 39 0 56 22 56 22 121-22 137-56 138-177z"/>
<glyph glyph-name="flaticon-12" unicode="" d="M491 277c12 0 21-10 21-21 0-11-9-21-21-21l-470 0c-12 0-21 10-21 21 0 11 9 21 21 21z m0 157c12 0 21-10 21-21 0-12-9-21-21-21l-470 0c-12 0-21 9-21 21 0 11 9 21 21 21z m0-314c12 0 21-9 21-21 0-11-9-21-21-21l-470 0c-12 0-21 10-21 21 0 12 9 21 21 21z"/>
<glyph glyph-name="flaticon-13" unicode="" d="M6 11l0 331 110 0 0-331z m471 300c23-25 35-62 35-110l0-190-110 0 0 177c0 23-4 42-13 55-9 13-23 20-42 20-14 0-26-4-36-12-9-7-16-17-21-28-2-7-3-16-3-27l0-185-110 0c0 89 1 161 1 216 0 55 0 88-1 99l0 16 110 0 0-47c4 6 8 12 13 17 4 6 11 11 18 18 8 6 18 11 29 14 12 4 25 5 39 5 38 0 68-12 91-38z m-415 190c18 0 33-6 44-17 11-10 17-24 17-40 1-17-5-30-16-41-12-11-27-16-46-16l0 0c-19 0-33 5-44 16-11 11-17 24-17 41 0 16 6 30 17 40 12 11 27 17 45 17z"/>
<glyph glyph-name="flaticon-14" unicode="" d="M138 67l-126 127c-16 15-16 40 0 55l190 191c11 11 25 16 40 16l114-1c24-1 43-20 43-43l0 0c5-2 10-4 16-6 29-12 55-29 72-46l1-1c29-29 26-51 21-62-4-10-18-28-58-28-17-1-35 2-54 8-3-7-7-14-13-19l-190-191c-16-15-41-15-56 0z m147 321c-13-13-13-33 0-46 12-13 33-13 46 0 0 1 1 1 1 2 13-10 29-19 46-26 58-24 97-17 100-8 1 3 0 12-14 26l0 0c-15 15-37 29-62 39-1 1-2 1-3 1l1-46c-5 2-11 4-17 7-15 6-30 14-43 23 2 10-2 21-9 28-13 13-33 13-46 0z"/>
<glyph glyph-name="flaticon-15" unicode="" d="M306 409c0 14 11 25 25 25 14 0 26-11 26-25 0-14-12-26-26-26-14 0-25 12-25 26z m0-76c0 14 11 25 25 25 14 0 26-11 26-25 0-14-12-26-26-26-14 0-25 12-25 26z m-306-76c0 14 11 25 26 25 14 0 25-11 25-25 0-14-11-26-25-26-15 0-26 12-26 26z m76 0c0 14 11 25 26 25 14 0 25-11 25-25 0-14-11-26-25-26-15 0-26 12-26 26z m78 0c0 14 11 25 25 25 14 0 26-11 26-25 0-14-12-26-26-26-14 0-25 12-25 26z m76 0c0 14 11 25 25 25 14 0 26-11 26-25 0-14-12-26-26-26-14 0-25 12-25 26z m76 0c0 14 11 25 25 25 14 0 26-11 26-25 0-14-12-26-26-26-14 0-25 12-25 26z m0-78c0 14 11 26 25 26 14 0 26-12 26-26 0-14-12-25-26-25-14 0-25 11-25 25z m0-76c0 14 11 26 25 26 14 0 26-12 26-26 0-14-12-25-26-25-14 0-25 11-25 25z m79 230c0 14 11 25 25 25 14 0 26-11 26-25 0-14-12-26-26-26-14 0-25 12-25 26z m0-76c0 14 11 25 25 25 14 0 26-11 26-25 0-14-12-26-26-26-14 0-25 12-25 26z m0-78c0 14 11 26 25 26 14 0 26-12 26-26 0-14-12-25-26-25-14 0-25 11-25 25z m76 78c0 14 11 25 25 25 15 0 26-11 26-25 0-14-11-26-26-26-14 0-25 12-25 26z"/>
<glyph glyph-name="flaticon-16" unicode="" d="M453 370c16-115-49-238-164-229-31 2-44 17-68 32-14-70-30-138-79-173-15 107 22 187 39 271-29 50 4 149 66 125 76-30-66-184 29-203 100-20 141 173 79 236-90 90-260 2-239-128 5-32 38-41 13-85-57 13-74 58-72 118 4 98 88 167 173 176 108 12 209-39 223-140z"/>
<glyph glyph-name="flaticon-17" unicode="" d="M123 512c-57-103-67-260 157-255l0 127 192-192-192-192 0 124c-268-7-298 236-157 388z"/>
<glyph glyph-name="flaticon-18" unicode="" d="M205 461l51-51 205 0c28 0 51-23 51-52l0-256c0-28-23-51-51-51l-410 0c-28 0-51 23-51 51l0 308c0 28 23 51 51 51z"/>
<glyph glyph-name="flaticon-19" unicode="" d="M476 444c20 0 36-16 36-36l0-304c0-20-16-36-36-36l-440 0c-20 0-36 16-36 36l0 304c0 20 16 36 36 36z m19-340l0 304c0 10-9 19-19 19l-440 0c-10 0-19-9-19-19l0-304c0-10 9-19 19-19l440 0c10 0 19 9 19 19z m-302 99c13-7 20-19 20-33l0-11c0-6 0-22-85-22-85 0-85 16-85 22l0 12c0 13 7 25 19 32l32 16 0 3c-14 7-24 20-29 37-9 4-14 13-14 23l0 8c0 8 4 15 10 20 1 8 3 16 6 23 1 3 2 5 3 7 2 5 2 5 1 13-1 4-2 8-2 11 0 3 1 6 3 8 4 5 11 5 15 0 2-2 5-5 8-7 7-5 17-7 28-6 1 0 3 0 5 0 39 0 62-17 67-49 6-5 10-12 10-20l0-8c0-10-5-19-14-23-5-17-15-30-29-37l0-3z m63 113c-5 0-9 4-9 8 0 5 4 9 9 9l85 0c5 0 9-4 9-9 0-4-4-8-9-8z m119 0c-4 0-8 4-8 8 0 5 4 9 8 9l9 0c5 0 9-4 9-9 0-4-4-8-9-8z m-110-128c4 0 8-4 8-9 0-5-4-8-8-8l-9 0c-5 0-9 3-9 8 0 5 4 9 9 9z m51 0c4 0 8-4 8-9 0-5-4-8-8-8l-17 0c-5 0-9 3-9 8 0 5 4 9 9 9z m42 0c5 0 9-4 9-9 0-5-4-8-9-8l-8 0c-5 0-9 3-9 8 0 5 4 9 9 9z m52 0c4 0 8-4 8-9 0-5-4-8-8-8l-17 0c-5 0-9 3-9 8 0 5 4 9 9 9z m28-3c3 3 9 3 12 0 1-1 2-4 2-6 0-2-1-4-2-6-2-1-4-2-6-2-2 0-5 1-6 2-2 2-3 4-3 6 0 2 1 5 3 6z m6 97c4 0 8-4 8-9 0-5-4-8-8-8l-188 0c-5 0-9 3-9 8 0 5 4 9 9 9z m0-52c4 0 8-3 8-8 0-5-4-9-8-9l-188 0c-5 0-9 4-9 9 0 5 4 8 9 8z"/>
<glyph glyph-name="flaticon-20" unicode="" d="M510 364c3-4 2-9-1-12-10-11-24-20-42-25 3-25 0-53-9-84-1 0-1 0-1 0-23-62-60-111-111-147-1 0-2 0-2-1l0 0c-36-24-74-41-113-49-22-5-43-7-65-7 0 0-1 0-1 0-41 1-79 10-114 26-5 2-7 7-6 12 1 5 6 8 11 8 6-1 13-1 19-1 15 0 28 2 33 3l1 0c92 21 100 75 101 91l0 0c-3-1-6-2-9-2-16-4-34-3-54 4-5 1-8 6-8 10 0 5 4 9 9 10 1 0 2 1 3 1 4 1 7 2 10 3l0 0-2 0c-27 0-52 11-67 20-4 2-6 7-5 12 1 4 5 7 10 8 3 0 7 0 11 0-17 3-34 11-52 23-4 2-5 7-4 12 1 4 6 7 10 7 8 0 16 0 22 0-25 10-83 40-84 103 0 4 2 8 5 10 3 2 7 2 11 0 106-61 191-69 207-70-9 58 18 129 78 142 22 5 47 2 73-10 2-1 45-20 69-72 14 1 27 4 40 9 4 2 10 1 13-3 3-4 2-10-2-14-6-6-16-13-27-19 12 2 23 4 31 7 5 1 10-1 12-5z"/>
<glyph glyph-name="flaticon-21" unicode="" d="M192 0l0 512 128 0 0-512z m-192 0l0 256 128 0 0-256z m384 352l128 0 0-352-128 0z"/>
<glyph glyph-name="flaticon-22" unicode="" d="M444 512c38 0 68-30 68-68l0-376c0-38-30-68-68-68l-376 0c-38 0-68 30-68 68l0 376c0 38 30 68 68 68z m-303-227c3 27 5 46 5 57 0 1 0 3 0 4-3 1-5 1-8 1-7 0-13-3-17-11-2-3-4-8-6-14-3-7-5-12-6-14-2-4-8-10-17-19-9-7-14-15-15-21 0-2 0-4 0-5 0-5 2-8 6-8 3 0 6 1 9 3l19 9c-1-6-1-19-2-39 0-1 0-2 0-5 0-4 0-6 0-8-1-13-1-21-1-24 0-3 1-6 1-9 1-11 5-17 11-17 2 0 5 0 7 2 6 2 9 9 9 21l0 1c0 3 0 12 0 26-1 6-1 9-1 11 0 13 2 33 6 59z m154-103c0 2 1 5 1 7 0 1-1 3-1 4-1 4-5 5-10 5-1 1-3 1-6 1-3 0-7 0-12-1-8-1-14-2-17-2l0 0c-11 1-25 2-42 4 3 4 15 16 36 33 17 14 27 28 33 41 2 6 3 12 3 18 0 6-1 12-5 18-6 12-17 18-32 18l-2 0c-14 0-28-5-42-14-14-10-22-23-25-38-1 0-1-1-1-2 0-2 1-4 2-5 2-2 5-3 8-4 0 0 1 0 2 0 2 0 4 1 6 1 3 1 5 3 6 5 8 15 17 24 27 27 4 1 8 2 11 2 4 0 8-1 11-4 2-2 3-5 3-8l0-1c0-3-2-7-5-11-17-24-42-47-74-70-9-5-13-11-13-17 0-2 1-3 1-5 2-7 9-12 21-13 19-3 37-4 54-4 10 0 19 1 28 1 9 1 16 2 19 3 9 2 14 6 15 11z m140 17c0 2 0 4 0 7 0 8-4 17-12 26-8 9-18 16-29 20 2 2 4 4 8 8 4 3 7 6 8 7 7 7 11 13 13 21 1 4 2 8 2 12 0 5-2 10-4 13-5 7-13 10-25 10l-1 0c-10 0-22-2-36-7-19-7-28-15-28-24l0 0c0-7 3-10 9-10l0 0c4 0 10 1 19 5 13 5 20 8 21 8 4 2 7 2 9 2 2 0 4 0 5-1 1-1 2-4 2-6l0-1c-3-4-5-7-5-8-4-5-9-9-16-13-12-6-18-9-19-10-7-4-10-8-10-12 0-3 2-6 6-9 5-3 13-6 27-10 8-3 16-8 22-14 2-3 3-6 3-8 0-1 0-1 0-2-1-3-4-6-10-8-4-1-8-2-13-2-6 0-13 2-21 4-12 4-22 10-31 17-7 5-10 8-11 8-4 2-7 3-9 3-2 0-4 0-5-1-4-4-6-7-7-9 0-1 0-2 0-2 0-3 1-6 3-10 6-11 17-20 34-27 15-6 29-9 43-9l1 0c13 0 24 3 34 7 13 6 20 14 23 25z"/>
<glyph glyph-name="flaticon-23" unicode="" d="M256 183l63 55 181-155c-6-6-15-10-25-10l-438 0c-10 0-19 4-25 10l181 155z m244 246l-244-210-244 210c6 6 15 10 25 10l438 0c10 0 19-4 25-10z m-500-22l177-154-177-150z m335-154l177 154 0-304z"/>
<glyph glyph-name="flaticon-24" unicode="" d="M256 409c98 0 187-54 252-141 5-7 5-17 0-24-65-87-154-141-252-141-98 0-187 54-252 141-5 7-5 17 0 24 65 87 154 141 252 141z m7-260c54 3 97 46 100 100 5 65-49 119-114 114-54-3-97-46-100-100-5-65 49-119 114-114z m-3 49c-35-2-64 27-62 62 2 29 25 52 54 54 35 2 64-27 62-62-2-29-25-52-54-54z"/>
<glyph glyph-name="flaticon-25" unicode="" d="M497 278c10-26 15-57 15-95 0-32-12-75-36-129-1-1-2-4-3-7-2-3-3-6-4-8-1-3-3-5-4-7-2-3-5-5-8-5-3 0-5 1-7 3-1 2-2 5-2 7 0 2 0 5 1 8 0 3 0 6 0 7 1 13 2 24 2 35 0 19-2 36-5 52-3 15-8 28-14 39-6 11-14 21-23 29-9 8-19 15-30 20-11 5-23 9-38 12-15 3-29 5-44 6-15 1-31 2-50 2l-64 0 0-73c0-5-2-10-6-13-3-4-7-6-12-6-5 0-10 2-13 6l-147 146c-3 4-5 8-5 13 0 5 2 9 5 13l147 146c3 4 8 6 13 6 5 0 9-2 12-6 4-3 6-8 6-13l0-73 64 0c136 0 219-38 250-115z"/>
<glyph glyph-name="flaticon-26" unicode="" d="M502 391c7-7 10-14 10-23 0-9-3-16-10-23l-224-223c-6-7-13-10-22-10-9 0-16 3-23 10l-223 223c-7 7-10 14-10 23 0 9 3 16 10 23 6 6 13 9 22 9l448 0c9 0 16-3 22-9z"/>
<glyph glyph-name="flaticon-27" unicode="" d="M187 230l0-41c0-6-6-12-12-12l-41 0c-6 0-11 6-11 12l0 41c0 6 5 11 11 11l41 0c6 0 12-5 12-11z m101 0l0-41c0-6-5-12-12-12l-40 0c-7 0-12 6-12 12l0 41c0 6 5 11 12 11l40 0c7 0 12-5 12-11z m101 0l0-41c0-6-5-12-11-12l-41 0c-6 0-12 6-12 12l0 41c0 6 6 11 12 11l41 0c6 0 11-5 11-11z m-202-102l0-40c0-7-6-12-12-12l-41 0c-6 0-11 5-11 12l0 40c0 7 5 12 11 12l41 0c6 0 12-5 12-12z m101 0l0-40c0-7-5-12-12-12l-40 0c-7 0-12 5-12 12l0 40c0 7 5 12 12 12l40 0c7 0 12-5 12-12z m101 0l0-40c0-7-5-12-11-12l-41 0c-6 0-12 5-12 12l0 40c0 7 6 12 12 12l41 0c6 0 11-5 11-12z m73 327c24-1 44-21 44-46l0-363c0-25-20-46-46-46l-408 0c-26 0-46 21-46 46l0 363c0 25 20 45 44 46l0-62c0-28 23-50 51-50l32 0c28 0 51 22 51 50l0 62 144 0 0-62c0-28 23-50 51-50l32 0c28 0 51 22 51 50z m-15-386l0 187c0 11-9 20-20 20l-343 0c-11 0-20-9-20-20l0-187c0-11 9-20 20-20l343 0c11 0 20 9 20 20z m-346 307c-10 0-18 7-18 17l0 102c0 9 8 17 18 17l31 0c10 0 18-8 18-17l0-102c0-10-8-17-18-17z m278 0c-10 0-18 7-18 17l0 102c0 9 8 17 18 17l31 0c10 0 18-8 18-17l0-102c0-10-8-17-18-17z"/>
<glyph glyph-name="flaticon-28" unicode="" d="M502 166c7-6 10-13 10-22 0-9-3-16-10-22-6-7-13-10-22-10l-448 0c-9 0-16 3-22 10-7 6-10 13-10 22 0 9 3 16 10 22l223 224c7 7 14 10 23 10 9 0 16-3 22-10z"/>
<glyph glyph-name="flaticon-29" unicode="" d="M70 140c19 0 36-7 49-21 14-13 21-30 21-49 0-20-7-36-21-50-13-13-30-20-49-20-20 0-36 7-50 20-13 14-20 30-20 50 0 19 7 36 20 49 14 14 30 21 50 21z m161 91c27-28 49-59 66-95 16-35 26-72 29-111 0-7-2-12-6-17-5-5-10-8-17-8l-50 0c-6 0-11 2-15 6-5 4-7 9-7 15-6 56-28 103-68 142-39 40-86 62-142 68-6 0-11 2-15 7-4 4-6 9-6 15l0 50c0 7 3 12 8 17 4 4 9 6 15 6l2 0c39-3 76-13 111-29 36-17 67-39 95-66z m237-24c26-58 41-119 44-183 0-6-2-12-7-17-4-5-10-7-16-7l-52 0c-7 0-12 2-17 6-4 5-6 10-7 16-3 52-15 101-36 148-22 47-50 88-84 123-35 34-76 62-123 84-47 21-96 34-148 37-6 0-11 2-16 7-4 4-6 10-6 16l0 52c0 6 2 12 7 16 5 5 10 7 16 7l1 0c64-3 125-18 183-44 58-26 109-61 154-107 46-45 81-96 107-154z"/>
<glyph glyph-name="flaticon-30" unicode="" d="M156 256l231-231c6-6 6-15 0-21-3-3-7-4-10-4-4 0-8 1-10 4l-242 242c-6 5-6 15 0 20l242 242c5 5 14 5 20 0 6-6 6-15 0-21z"/>
<glyph glyph-name="flaticon-31" unicode="" d="M490 398c15-25 22-67 22-142l0 0c0-75-7-118-22-142-14-25-29-29-59-31-31-2-108-3-175-3-67 0-144 1-175 3-30 2-45 6-59 31-15 25-22 67-22 142l0 0c0 75 7 117 22 142 14 25 29 29 59 31 31 2 108 3 175 3 67 0 144-1 175-3 30-2 45-6 59-31z m-298-238l160 96-160 96z"/>
<glyph glyph-name="flaticon-32" unicode="" d="M507 86c6-10 7-22 1-32-6-10-16-16-27-16l-450 0c-11 0-21 6-27 16-6 10-5 22 1 32l224 372c6 10 16 16 27 16 11 0 21-6 27-16z m-251 259c-13 0-24-8-24-20 0-40 5-96 5-136 0-10 9-14 19-14 8 0 19 4 19 14 0 40 5 96 5 136 0 12-11 20-24 20z m0-244c14 0 26 12 26 25 0 14-12 26-26 26-14 0-25-12-25-26 0-13 11-25 25-25z"/>
<glyph glyph-name="instagram" unicode="" d="M352 512l-192 0c-88 0-160-72-160-160l0-192c0-88 72-160 160-160l192 0c88 0 160 72 160 160l0 192c0 88-72 160-160 160z m112-352c0-62-50-112-112-112l-192 0c-62 0-112 50-112 112l0 192c0 62 50 112 112 112l192 0c62 0 112-50 112-112z m-208 224c-71 0-128-57-128-128 0-71 57-128 128-128 71 0 128 57 128 128 0 71-57 128-128 128z m0-208c-44 0-80 36-80 80 0 44 36 80 80 80 44 0 80-36 80-80 0-44-36-80-80-80z m155 218c0-10-8-17-17-17-10 0-17 7-17 17 0 9 7 17 17 17 9 0 17-8 17-17z"/>
<glyph glyph-name="icon" unicode="" d="M70 41c0 0-1-12 10-12 14 0 129 0 129 0l1 106c0 0-2 18 15 18l53 0c20 0 19-18 19-18l0-105c0 0 109 0 126 0 14 0 14 14 14 14l0 195-178 158-189-158c0 0 0-198 0-198z m-70 213c0 0 16-30 51 0l209 177 196-176c41-29 56 0 56 0l-252 228z m452 177l-51 0 0-61 51-43z"/>
<glyph glyph-name="pause" unicode="" d="M224 76l0 360c0 7-5 12-12 12l-72 0c-7 0-12-5-12-12l0-360c0-7 5-12 12-12l72 0c7 0 12 5 12 12z m148 372l-72 0c-6 0-12-5-12-12l0-360c0-7 5-12 12-12l72 0c7 0 12 5 12 12l0 360c0 7-5 12-12 12z"/>
<glyph glyph-name="safirblog" unicode="" d="M510 284c0 8-9 13-16 13-24 0-44 14-53 35-9 22-3 47 14 63 6 5 6 14 2 20-12 15-26 29-41 41-6 4-14 4-19-2-15-17-43-23-64-14-22 9-36 31-35 55 1 8-5 14-12 15-19 3-39 3-58 0-7 0-13-7-12-14 0-24-14-46-36-55-20-8-48-2-63 15-5 5-13 6-19 1-16-12-30-26-42-41-4-6-4-14 2-19 18-16 23-42 14-64-9-21-30-35-55-35-9 1-14-5-15-12-3-19-3-39 0-58 0-8 9-13 16-13 23 1 44-13 53-35 9-22 3-47-14-63-6-5-6-14-2-20 12-15 26-29 41-41 6-4 14-4 19 2 15 17 43 23 64 14 22-9 36-31 35-55-1-8 5-14 12-15 10-1 20-2 30-2 9 0 18 1 28 2 7 0 13 7 12 14 0 24 14 46 35 55 22 8 49 2 64-15 5-5 13-6 19-1 16 12 29 26 42 41 4 6 4 14-2 19-18 16-23 42-14 64 8 21 29 35 52 35l3 0c8-1 14 5 15 12 3 19 3 39 0 58z m-254-114c-47 0-85 38-85 85 0 48 38 86 85 86 47 0 86-38 86-86 0-47-39-85-86-85z"/>
<glyph glyph-name="play-button" unicode="" d="M440 266l-354 244c-4 2-8 3-12 1-4-3-7-7-7-11l0-488c0-4 3-9 7-11 1-1 3-1 5-1 3 0 5 1 7 2l354 244c3 2 5 6 5 10 0 4-2 8-5 10z"/>
<glyph glyph-name="avatar" unicode="" d="M254 236c1 0 1 0 2 0 0 0 0 0 0 0 1 0 1 0 2 0 31 1 56 12 74 32 41 46 34 125 34 133-3 56-30 83-52 96-16 9-35 15-57 15l-1 0c0 0 0 0 0 0l-1 0c-11 0-35-2-57-15-22-12-49-39-52-96-1-8-7-87 34-133 18-20 43-31 74-32z m-79 162c0 1 0 1 0 1 3 76 57 84 80 84l1 0c0 0 0 0 0 0 29 0 78-12 81-84 0 0 0-1 0-1 0-1 8-73-26-111-13-15-31-22-55-22 0 0 0 0 0 0 0 0 0 0-1 0-23 0-41 7-54 22-34 38-27 111-26 111z m299-293c0 0 0 0 0 1 0 0 0 1 0 2-1 21-2 70-48 86-1 0-1 0-1 0-48 13-88 40-88 40-7 5-16 3-20-3-5-7-3-15 3-20 2-1 44-31 97-44 25-9 27-35 28-60 0-1 0-1 0-2 0-10 0-25-2-33-17-10-85-43-187-43-102 0-170 33-187 43-2 9-2 23-2 33 0 1 0 2 0 3 1 24 3 50 28 59 53 13 95 43 97 44 6 5 8 14 3 20-4 6-13 8-20 4 0-1-39-28-88-41 0 0 0 0-1 0-46-16-47-65-48-86 0-1 0-1 0-2 0 0 0-1 0-1 0-5 0-33 6-48 1-2 3-5 5-6 3-2 80-51 207-51 128 0 204 49 207 51 3 1 5 4 6 6 5 14 5 43 5 48z"/>
<glyph glyph-name="flaticon-33" unicode="" d="M205 256c0-14-12-26-26-26l-153 0c-15 0-26 12-26 26 0 14 11 26 26 26l153 0c14 0 26-12 26-26z m-26-77c14 0 26-11 26-25 0-15-12-26-26-26l-153 0c-15 0-26 11-26 26 0 14 11 25 26 25z m318 103c14 0 15-12 15-26 0-14-1-26-15-26l-87 0 0-87c0-14-12-15-26-15-14 0-26 1-26 15l0 87-84 0c-14 0-15 12-15 26 0 14 1 26 15 26l84 0 0 87c0 14 12 15 26 15 14 0 26-1 26-15l0-87z m-318 102c14 0 26-11 26-26 0-14-12-25-26-25l-153 0c-15 0-26 11-26 25 0 15 11 26 26 26z"/>
<glyph glyph-name="flaticon-34" unicode="" d="M256 0c-61 0-118 24-161 67-44 43-67 100-67 161 0 61 23 119 67 162 13 14 35 14 49 0 14-14 14-36 0-50-30-30-46-69-46-112 0-42 16-82 46-111 30-30 70-47 112-47 42 0 82 17 112 47 30 29 46 69 46 111 0 43-16 82-46 112-14 14-14 36 0 50 14 14 36 14 49 0 44-43 67-101 67-162 0-61-23-118-67-161-43-43-100-67-161-67z m0 266c-19 0-35 16-35 35l0 176c0 19 16 35 35 35 19 0 35-16 35-35l0-176c0-19-16-35-35-35z"/>
<glyph glyph-name="flaticon-35" unicode="" d="M508 301c6-9 5-21-3-28l-102-82c-3-3-8-5-12-5-5 0-11 2-14 6l-7 6-79-139c-3-5-8-9-14-10l-253-49c-2 0-3 0-4 0-5 0-10 2-14 6-5 4-7 11-6 18l49 253c1 6 5 11 10 14l139 79-6 7c-7 7-8 18-1 26l82 102c7 8 19 9 28 3 8-7 10-20 3-28l-71-88 12-12 135-135c0 0 0 0 0 0l12-12 88 71c8 7 21 5 28-3z m-247-215l80 141-114 114-141-80-34-181 121 121c-3 6-4 13-4 21 0 14 5 27 15 38 10 10 24 15 38 15 15 0 28-5 38-15 21-21 21-55 0-76-10-10-23-16-38-16-7 0-14 2-21 4l-121-120z m-49 126c3-3 7-4 10-4 4 0 7 1 10 4 5 5 5 14 0 19-3 3-6 4-10 4-3 0-7-1-10-4-2-2-4-6-4-9 0-4 2-8 4-10z"/>
<glyph glyph-name="flaticon-36" unicode="" d="M256 512c141 0 256-115 256-256 0-141-115-256-256-256-141 0-256 115-256 256 0 141 115 256 256 256z m26-384l0 154-52 0 0-154z m0 205l0 51-52 0 0-51z"/>
<glyph glyph-name="flaticon-37" unicode="" d="M256 512c141 0 256-115 256-256 0-141-115-256-256-256-141 0-256 115-256 256 0 141 115 256 256 256z m26-384l0 51-52 0 0-51z m0 102l0 154-52 0 0-154z"/>
<glyph glyph-name="flaticon-38" unicode="" d="M256 307c42 0 77-34 77-77 0-42-35-76-77-76-42 0-77 34-77 76 0 43 35 77 77 77z m205 77c28 0 51-23 51-51l0-231c0-28-23-51-51-51l-410 0c-28 0-51 23-51 51l0 231c0 28 23 51 51 51l62 0c8 0 17 7 20 15l16 47c2 8 12 15 20 15l174 0c8 0 18-7 20-15l16-47c3-8 12-15 20-15z m-205-282c71 0 128 58 128 128 0 71-57 128-128 128-71 0-128-57-128-128 0-70 57-128 128-128z m187 195c10 0 18 8 18 18 0 10-8 18-18 18-10 0-18-8-18-18 0-10 8-18 18-18z"/>
<glyph glyph-name="safirblog-1" unicode="" d="M477 385c-23 39-54 70-93 93-39 23-82 34-128 34-47 0-89-11-129-34-39-23-70-54-93-93-23-40-34-82-34-129 0-46 11-89 34-128 23-39 54-70 93-93 40-23 82-34 129-34 46 0 89 11 128 34 39 23 70 54 93 93 23 39 34 82 34 128 0 47-11 89-34 129z m-179-289c0-3-1-5-3-7-2-2-4-3-7-3l-64 0c-3 0-6 1-8 3-2 2-3 4-3 7l0 64c0 3 1 6 3 8 2 2 5 3 8 3l64 0c3 0 5-1 7-3 2-2 3-5 3-8z m81 197c-2-8-5-15-9-20-3-5-8-10-15-16-6-5-11-9-15-12-4-2-9-5-16-9-8-4-14-10-18-17-5-6-8-12-8-16 0-3-1-6-3-8-2-2-4-3-7-3l-64 0c-3 0-6 1-8 3-2 2-3 5-3 8l0 12c0 15 6 29 18 42 11 13 24 22 38 29 11 4 18 9 23 15 4 5 6 11 6 20 0 7-4 14-12 20-8 5-18 8-29 8-11 0-21-2-28-8-8-5-17-15-29-30-2-3-5-4-8-4-3 0-5 0-7 2l-43 33c-6 4-6 9-3 14 28 47 69 71 123 71 20 0 39-5 57-14 18-9 34-22 46-39 12-16 19-34 19-54 0-10-2-19-5-27z"/>
</font>
</defs>
</svg>
