<svg width="76" height="75" viewBox="0 0 76 75" fill="none" xmlns="http://www.w3.org/2000/svg">
<path fill-rule="evenodd" clip-rule="evenodd" d="M24.8462 54.8077C22.4266 54.8077 20.4615 52.8657 20.4615 50.4789C20.4615 48.0955 22.4266 46.1538 24.8462 46.1538C27.2622 46.1538 29.2308 48.0955 29.2308 50.4789C29.2308 52.8657 27.2622 54.8077 24.8462 54.8077Z" fill="#FA9B33"/>
<path fill-rule="evenodd" clip-rule="evenodd" d="M51.8883 56.25C49.0663 56.25 46.7692 53.9835 46.7692 51.2038C46.7692 48.4165 49.0663 46.1538 51.8883 46.1538C54.7061 46.1538 57 48.4165 57 51.2038C57 53.9835 54.7061 56.25 51.8883 56.25Z" fill="#FA9B33"/>
<path fill-rule="evenodd" clip-rule="evenodd" d="M24.846 59.1346C20.8186 59.1346 17.5385 55.9011 17.5385 51.9267C17.5385 47.9486 20.8186 44.7115 24.846 44.7115C28.8737 44.7115 32.1538 47.9486 32.1538 51.9267C32.1538 55.9011 28.8737 59.1346 24.846 59.1346ZM24.846 47.8332C22.5577 47.8332 20.6979 49.6685 20.6979 51.9267C20.6979 54.1811 22.5577 56.0199 24.846 56.0199C27.1343 56.0199 28.9941 54.1811 28.9941 51.9267C28.9941 49.6685 27.1343 47.8332 24.846 47.8332Z" fill="#1C5590"/>
<path fill-rule="evenodd" clip-rule="evenodd" d="M52.6152 59.1346C48.5844 59.1346 45.3077 55.9011 45.3077 51.9267C45.3077 47.9486 48.5844 44.7115 52.6152 44.7115C56.6429 44.7115 59.9231 47.9486 59.9231 51.9267C59.9231 55.9011 56.6429 59.1346 52.6152 59.1346ZM52.6152 47.8332C50.3269 47.8332 48.4639 49.6685 48.4639 51.9267C48.4639 54.1811 50.3269 56.0199 52.6152 56.0199C54.9035 56.0199 56.7633 54.1811 56.7633 51.9267C56.7633 49.6685 54.9035 47.8332 52.6152 47.8332Z" fill="#1C5590"/>
<mask id="mask0_120_8277" style="mask-type:alpha" maskUnits="userSpaceOnUse" x="0" y="0" width="76" height="75">
<path fill-rule="evenodd" clip-rule="evenodd" d="M0 75H76V0H0V75Z" fill="white"/>
</mask>
<g mask="url(#mask0_120_8277)">
<path fill-rule="evenodd" clip-rule="evenodd" d="M68.361 25.4359H72.874V10.5283H68.361V25.4359ZM65.0909 36.0286H10.9091V6.885C10.9091 4.83409 12.5942 3.16705 14.6673 3.16705H61.3361C63.4058 3.16705 65.0909 4.83409 65.0909 6.885V36.0286ZM65.0909 59.2357C65.0909 61.2903 63.4058 62.9536 61.3361 62.9536H59.8593H56.4314H48.1671H44.7429H31.5555H28.1276H19.8633H16.4353H14.6673C12.5942 62.9536 10.9091 61.2903 10.9091 59.2357V39.1957H65.0909V59.2357ZM52.2994 72.1527C49.2231 72.1527 46.7189 69.6791 46.7189 66.6327C46.7189 66.4551 46.7514 66.2843 46.7694 66.1067H57.8256C57.8433 66.2843 57.8795 66.4551 57.8795 66.6327C57.8795 69.6791 55.3788 72.1527 52.2994 72.1527ZM23.9918 72.1527C20.9159 72.1527 18.4151 69.6791 18.4151 66.6327C18.4151 66.4551 18.4511 66.2843 18.4656 66.1067H29.5219C29.5398 66.2843 29.5757 66.4551 29.5757 66.6327C29.5757 69.6791 27.075 72.1527 23.9918 72.1527ZM3.18509 25.4359H7.69811V10.5283H3.18509V25.4359ZM71.7205 7.36841L68.343 7.37216L68.2711 6.38045C68.0048 2.80091 64.9617 0 61.3361 0H14.6673C11.0383 0 7.9914 2.80091 7.73265 6.39818L7.61416 7.36841H4.28295C1.92245 7.36841 0 9.26659 0 11.6018V24.359C0 26.6942 1.92245 28.5924 4.28295 28.5924H7.70398V59.2357C7.70398 62.9751 10.7402 66.0177 14.4987 66.1067H15.5911C15.5803 66.2843 15.5372 66.4551 15.5372 66.6327C15.5372 71.2463 19.3313 75 23.9918 75C28.6558 75 32.4537 71.2463 32.4537 66.6327C32.4537 66.4551 32.4109 66.2843 32.4002 66.1067H43.8945C43.8838 66.2843 43.8406 66.4551 43.8406 66.6327C43.8406 71.2463 47.6385 75 52.2994 75C56.9634 75 60.7575 71.2463 60.7575 66.6327C60.7575 66.4551 60.7143 66.2843 60.704 66.1067H61.5085C65.2671 66.0177 68.2998 62.9751 68.2998 59.2357V28.5924H71.7205C74.0779 28.5924 76 26.6942 76 24.359V11.6018C76 9.26659 74.0779 7.36841 71.7205 7.36841Z" fill="#1C5590"/>
</g>
</svg>
