<?xml version="1.0" standalone="no"?>
<!DOCTYPE svg PUBLIC "-//W3C//DTD SVG 20010904//EN"
 "http://www.w3.org/TR/2001/REC-SVG-20010904/DTD/svg10.dtd">
<svg version="1.0" xmlns="http://www.w3.org/2000/svg"
 width="612.000000pt" height="344.000000pt" viewBox="0 0 612.000000 344.000000"
 preserveAspectRatio="xMidYMid meet">

<g transform="translate(0.000000,344.000000) scale(0.100000,-0.100000)"
fill="#000000" stroke="none">
<path d="M5874 3320 c-116 -10 -221 -21 -232 -24 -28 -9 -61 -57 -77 -109 -12
-40 -14 -42 -61 -49 -27 -3 -103 -7 -169 -7 -66 -1 -137 -6 -157 -11 -47 -14
-83 -60 -111 -142 -19 -59 -21 -94 -28 -578 -8 -541 -11 -577 -58 -714 -23
-65 -58 -126 -72 -126 -5 0 -91 34 -192 76 -361 151 -447 184 -479 184 -37 0
-92 -30 -126 -69 -43 -49 -84 -143 -118 -278 -55 -213 -90 -275 -202 -370 -67
-55 -306 -177 -1852 -941 l-325 -160 2253 -1 2252 -1 0 1670 c0 1584 -1 1670
-17 1669 -10 -1 -113 -10 -229 -19z m-551 -754 c18 -7 48 -30 66 -50 39 -40
35 -47 -9 -15 -86 64 -200 -10 -200 -130 0 -117 113 -220 197 -182 39 18 40 5
2 -19 -51 -32 -136 -24 -186 17 -121 97 -125 305 -8 370 46 26 92 29 138 9z
m243 -199 l37 6 -22 -30 c-22 -29 -22 -32 -7 -61 22 -43 21 -45 -15 -26 -31
16 -32 15 -55 -12 l-24 -27 0 41 c0 37 -4 44 -32 59 l-33 17 33 9 c17 6 33 16
33 23 1 8 3 19 4 24 1 6 3 18 4 28 1 11 8 5 21 -20 19 -34 22 -36 56 -31z"/>
</g>
</svg>
