<svg width="91" height="56" viewBox="0 0 91 56" fill="none" xmlns="http://www.w3.org/2000/svg">
<path fill-rule="evenodd" clip-rule="evenodd" d="M2.71631 32.6459H6.79095V15.0944H2.71631V32.6459Z" fill="#FA9B33"/>
<mask id="mask0_176_10471" style="mask-type:alpha" maskUnits="userSpaceOnUse" x="0" y="0" width="91" height="56">
<path fill-rule="evenodd" clip-rule="evenodd" d="M45.5 55.5979H0V0.5979H45.5H91V55.5979H45.5Z" fill="white"/>
</mask>
<g mask="url(#mask0_176_10471)">
<path fill-rule="evenodd" clip-rule="evenodd" d="M72.2397 55.5979C67.8812 55.5979 64.0902 52.4807 63.2216 48.1915L63.167 47.9164H35.4806L35.426 48.1915C34.5544 52.4807 30.7597 55.5979 26.4012 55.5979C22.046 55.5979 18.2513 52.4807 17.3798 48.1915L17.3252 47.9164H11.1206C9.20302 47.9164 7.64071 46.3462 7.64071 44.4212V36.4063H4.43419C1.99001 36.4063 0 34.4061 0 31.9453V18.504C0 16.0464 1.99001 14.0462 4.43419 14.0462H7.64071V4.0898C7.64071 2.16519 9.20302 0.5979 11.1206 0.5979H53.4759C56.265 0.5979 58.7675 2.15445 60.0084 4.66359L71.3028 27.4809H81.7877C86.8671 27.4809 91.0002 31.6326 91.0002 36.7364V44.4212C91.0002 46.3462 89.4383 47.9164 87.517 47.9164H81.319L81.2644 48.1915C80.3929 52.4807 76.5982 55.5979 72.2397 55.5979ZM72.2396 40.2353C68.8929 40.2386 66.172 42.9778 66.172 46.3392C66.172 49.7072 68.8929 52.4427 72.2396 52.4427C75.5624 52.4427 78.287 49.7241 78.311 46.3805C78.311 42.9778 75.5901 40.2386 72.2396 40.2353ZM26.3979 40.2353C23.0544 40.2386 20.3335 42.9778 20.3335 46.3392C20.3335 49.7072 23.0544 52.4427 26.4012 52.4427C29.7272 52.4427 32.4486 49.7208 32.4692 46.3768C32.4692 42.9778 29.7479 40.2386 26.3979 40.2353ZM72.1987 37.0801C72.8547 37.0838 73.4293 37.149 73.9831 37.2585L74.3422 37.3552C74.9196 37.5097 75.2753 37.6092 75.6207 37.7468C75.7915 37.8154 75.9524 37.898 76.1125 37.9806C76.5398 38.1867 76.8339 38.3379 77.111 38.5164C77.3158 38.644 77.511 38.7849 77.6988 38.9258C77.9553 39.1179 78.2014 39.3211 78.4372 39.5376C78.615 39.7057 78.7896 39.8672 78.9571 40.0461C79.1726 40.2799 79.367 40.5306 79.5585 40.7851C79.774 41.0668 79.8865 41.2147 79.9862 41.3725C80.167 41.651 80.3142 41.9538 80.4611 42.2524C80.6357 42.5825 80.7039 42.7201 80.7651 42.8679C80.9297 43.2732 81.0526 43.7028 81.1585 44.1394L81.2102 44.4212L81.5994 44.7616H87.859V36.7364C87.859 33.3717 85.1377 30.6358 81.7876 30.6358H10.7785V44.7616H17.3214L17.3764 44.4869C17.4927 43.9089 17.6738 43.3591 17.8927 42.8266L18.0974 42.4106C18.2753 42.036 18.4598 41.6753 18.6823 41.3279L18.9148 41.0086C19.2428 40.5616 19.4682 40.2799 19.718 40.0118C19.8616 39.8602 20.0121 39.7164 20.1623 39.5751C20.4225 39.331 20.6959 39.1079 20.9829 38.8915L21.4992 38.5337C21.8032 38.3416 22.1213 38.1698 22.4493 38.0116L23.0031 37.7538C23.3692 37.6059 23.7485 37.4993 24.1349 37.3998L24.6474 37.2622C25.2149 37.149 25.7997 37.0801 26.3979 37.0801C27.0163 37.0838 27.5908 37.149 28.1447 37.2585C28.2712 37.2862 28.387 37.3209 28.5103 37.3552C29.0811 37.5097 29.4369 37.6092 29.7818 37.7468C29.9361 37.8121 30.0863 37.8843 30.2368 37.9599C30.698 38.1867 30.9921 38.3379 31.2759 38.5164C31.4777 38.644 31.6655 38.7849 31.8604 38.9291C32.1168 39.1179 32.3596 39.3211 32.5991 39.5409C32.7733 39.7024 32.9474 39.8672 33.1116 40.0461C33.3337 40.2832 33.5286 40.5306 33.7201 40.7851C33.9252 41.0602 34.0415 41.2077 34.1441 41.3692C34.3252 41.651 34.4758 41.9538 34.6226 42.2524C34.8038 42.6064 34.8721 42.7304 34.9233 42.8679C35.0876 43.2732 35.2104 43.7028 35.32 44.1394L35.3817 44.4009L35.761 44.7616H63.1603L63.2149 44.4869C63.3311 43.9089 63.5156 43.3591 63.7344 42.8266L63.9429 42.4106C64.117 42.036 64.2986 41.6753 64.5245 41.3316C64.5927 41.218 64.6746 41.1148 64.7499 41.0115C65.0845 40.5616 65.3071 40.2799 65.5565 40.0118C65.7 39.8602 65.8473 39.7193 66.0007 39.5751C66.2609 39.3277 66.5376 39.1079 66.8247 38.8915C67.0262 38.7436 67.1771 38.637 67.3372 38.537C67.6454 38.3416 67.963 38.1727 68.2877 38.0116L68.8453 37.7538C69.2077 37.6059 69.5903 37.4993 69.9766 37.3998L70.4862 37.2622C71.057 37.149 71.6415 37.0801 72.2396 37.0801H72.1987ZM4.43414 17.2015C3.71937 17.2015 3.13821 17.7856 3.13821 18.504V31.9453C3.13821 32.667 3.71937 33.2515 4.43414 33.2515H7.64065V17.2015H4.43414ZM10.7785 27.4809H67.7992L57.2052 6.07266C56.4941 4.63963 55.065 3.74941 53.4758 3.74941H10.7785V27.4809Z" fill="#1C5590"/>
</g>
<path fill-rule="evenodd" clip-rule="evenodd" d="M16.8482 22.9595C15.9833 22.9595 15.2793 22.2548 15.2793 21.3852V9.8648C15.2793 8.99564 15.9833 8.2876 16.8482 8.2876H50.1477C50.8897 8.2876 51.5561 8.69987 51.8949 9.3666L57.2138 20.1273C57.5179 20.7424 57.4835 21.4575 57.1212 22.035C56.7659 22.6158 56.1471 22.9595 55.4704 22.9595H16.8482ZM41.3384 19.808H53.5523L49.4093 11.4391H41.3384V19.808ZM29.8761 19.808H38.2002V11.4358H29.8761V19.808ZM18.4172 19.808H26.7412V11.4358H18.4172V19.808Z" fill="#1C5590"/>
</svg>
