<svg id="fiets" xmlns="http://www.w3.org/2000/svg" viewBox="0 0 57.6 33.59">
  <title>fiets</title>
  <path id="Fill-1" d="M28.52,24.17a2.42,2.42,0,1,1,2.41-2.42,2.42,2.42,0,0,1-2.41,2.42" transform="translate(0 -0.25)" style="fill: #f5bb23"/>
  <path id="Fill-3" d="M46.4,24.17a1.94,1.94,0,1,1,1.93-1.94,1.94,1.94,0,0,1-1.93,1.94" transform="translate(0 -0.25)" style="fill: #f5bb23"/>
  <path id="Fill-5" d="M11.6,24.17a1.94,1.94,0,1,1,1.93-1.94,1.93,1.93,0,0,1-1.93,1.94" transform="translate(0 -0.25)" style="fill: #f5bb23"/>
  <path id="Fill-7" d="M44.58,22.07a1.09,1.09,0,1,1,1.09,1.09A1.09,1.09,0,0,1,44.58,22.07Zm1.09,9.82a9.9,9.9,0,0,1-4.74-18.63l2.81,6.49a3,3,0,0,0-1.12,2.32,3.05,3.05,0,1,0,3.05-3h-.11l-2.82-6.55a9.92,9.92,0,1,1,2.93,19.38ZM30.6,18.6a4,4,0,0,0-1.94-.51,3.72,3.72,0,0,0-1,.13L21.45,7.9h14.9Zm-1.94,5.51a2,2,0,1,1,2.05-2A2.05,2.05,0,0,1,28.66,24.11Zm-3.95-2.66h-.86A11.76,11.76,0,0,0,18,11.76l1.67-3.1L26,19.14A4,4,0,0,0,24.71,21.45Zm-9.8,0a3,3,0,0,0-1.18-1.82L17,13.47a9.79,9.79,0,0,1,4.85,8ZM13,22.07A1.1,1.1,0,1,1,11.94,21,1.09,1.09,0,0,1,13,22.07Zm7.69,4.6a10,10,0,0,1-13.51,4,9.91,9.91,0,0,1-4.83-5.88,9.77,9.77,0,0,1,.77-7.54,10,10,0,0,1,12.14-4.64l-3.43,6.4a3,3,0,0,0,.08,6.05,3.07,3.07,0,0,0,2.75-1.73h7.12A9.87,9.87,0,0,1,20.72,26.67Zm25-16.54a12,12,0,0,0-3.7.59L38.29,2.19h5.14a2.2,2.2,0,0,1,2.2,2.18,1,1,0,0,1-.69.91l-1.61.48,0,0a1,1,0,0,0-.56.87,1,1,0,0,0,1,1l.12,0h0l.13,0,.15,0,1.34-.4a2.87,2.87,0,0,0,2.07-2.77A4.14,4.14,0,0,0,43.43.25H35.32L37.79,6H20.3L18.52,3.05h2.54a1,1,0,0,0,1-1,1,1,0,0,0-1-1H12.18a1,1,0,0,0-.92,1,1,1,0,0,0,.92,1h4.06l2.23,3.69-2.25,4.18a12,12,0,0,0-14.8,5.45A11.82,11.82,0,0,0,6.29,32.42a12,12,0,0,0,5.63,1.41,12.2,12.2,0,0,0,3.45-.5,11.86,11.86,0,0,0,8.42-10h1.08A4,4,0,1,0,32.05,20L38.58,7.81l1.58,3.67a11.93,11.93,0,1,0,5.51-1.35Z" transform="translate(0 -0.25)" style="fill: #1c5590"/>
  <path id="Fill-10" d="M8.08,27.36A6.19,6.19,0,0,1,5.53,19l0-.09h0a.93.93,0,0,0,.18-.51A1,1,0,0,0,3.92,18l0,.09A8,8,0,0,0,7.19,29a8.13,8.13,0,0,0,6.21.62,8.06,8.06,0,0,0,4.83-3.91l.05-.09h0a.92.92,0,0,0,.09-.38.94.94,0,0,0-.94-.93.92.92,0,0,0-.78.45h0l-.06.09a6.22,6.22,0,0,1-3.71,3,6.36,6.36,0,0,1-4.78-.48" transform="translate(0 -0.25)" style="fill: #1c5590"/>
  <path id="Fill-12" d="M45.57,13.53h-.12a1,1,0,0,0,0,2h.12a6.7,6.7,0,0,1,0,13.39h-.12a1,1,0,0,0,0,2h.12a8.7,8.7,0,0,0,0-17.4" transform="translate(0 -0.25)" style="fill: #1c5590"/>
</svg>
