<svg id="mobilitiet" xmlns="http://www.w3.org/2000/svg" viewBox="0 0 75.95 73.27">
  <title>mobiliteit</title>
  <path id="Fill-1" d="M75.56,39.48a1.33,1.33,0,0,0-1.87,0L42.86,71a1.31,1.31,0,1,0,1.86,1.85l30.86-31.5a1.32,1.32,0,0,0,0-1.87h0" style="fill: #1c5590"/>
  <path id="Fill-3" d="M33.7,61.79l-2,1.45a1.32,1.32,0,0,0,.77,2.39,1.26,1.26,0,0,0,.77-.26l2-1.44a1.32,1.32,0,1,0-1.55-2.14" style="fill: #1c5590"/>
  <path id="Fill-5" d="M26.58,67l-2,1.44a1.32,1.32,0,0,0,1.55,2.14l2-1.45a1.32,1.32,0,1,0-1.41-2.23.71.71,0,0,0-.14.1" style="fill: #1c5590"/>
  <path id="Fill-7" d="M47.94,51.46l-2,1.45a1.32,1.32,0,0,0,.77,2.39,1.37,1.37,0,0,0,.78-.25l2-1.45a1.32,1.32,0,0,0-1.55-2.14" style="fill: #1c5590"/>
  <path id="Fill-9" d="M61,45a1.37,1.37,0,0,0,.78-.25l2-1.45a1.32,1.32,0,0,0-1.41-2.23.71.71,0,0,0-.14.1l-2,1.44A1.32,1.32,0,0,0,61,45" style="fill: #1c5590"/>
  <path id="Fill-11" d="M42.66,56.92a1.31,1.31,0,0,0-1.83-.3h0l-2,1.44a1.32,1.32,0,1,0,1.55,2.14h0l2-1.45a1.31,1.31,0,0,0,.3-1.83h0" style="fill: #1c5590"/>
  <path id="Fill-13" d="M53.07,47.75a1.32,1.32,0,1,0,1.55,2.13l2-1.44a1.33,1.33,0,0,0,.29-1.85,1.31,1.31,0,0,0-1.83-.3h0Z" style="fill: #1c5590"/>
  <path id="Fill-15" d="M16.55,44.85H33.28A6.09,6.09,0,0,1,35,41.93H14.86a6.13,6.13,0,0,1,1.69,2.92" style="fill: #fcc42c"/>
  <path id="Fill-17" d="M2.64,44.85H4.87a6,6,0,0,1,1.69-2.92H2.64Z" style="fill: #f5bb23"/>
  <path id="Fill-19" d="M43.27,41.93a6.13,6.13,0,0,1,1.45,2.17q.14.36.24.75h2.68A14.33,14.33,0,0,0,49,42v-.08Z" style="fill: #fcc42c"/>
  <polygon id="Fill-21" points="12.7 30.91 26.56 28.22 26.56 26.32 12.7 26.32 12.7 30.91" style="fill: #fcc42c"/>
  <polygon id="Fill-23" points="35.05 26.32 29.2 26.32 29.2 27.71 35.22 26.54 35.05 26.32" style="fill: #fcc42c"/>
  <polygon id="Fill-25" points="4.22 32.56 10.06 31.42 10.06 26.32 7.42 26.32 4.22 32.56" style="fill: #fcc42c"/>
  <polygon id="Fill-27" points="48.11 45.45 48.18 45.35 47.96 45.45 48.11 45.45" style="fill: #1c5590"/>
  <path id="Fill-29" d="M49.15,41.93H49V42Z" style="fill: #1c5590"/>
  <path id="Fill-31" d="M49,41.93h.13L49,42a14.44,14.44,0,0,1-1.34,2.84H45q-.11-.39-.24-.75a6.13,6.13,0,0,0-1.45-2.17,6,6,0,0,0-8.3,0,6.13,6.13,0,0,0-1.69,2.92H16.55a6.13,6.13,0,0,0-1.69-2.92,6,6,0,0,0-10,2.92H2.64v-8.3c16.07-1.18,41.51-2.19,45.05-.09a3.26,3.26,0,0,1,1.66,2.2A6.42,6.42,0,0,1,49,41.93Zm-.91,3.52H48l.21-.1Zm-5.84,2a3.26,3.26,0,0,1-.69,1.09,3.37,3.37,0,0,1-2.13,1.05h-.32a3.37,3.37,0,0,1-2.76-1.44,3.72,3.72,0,0,1-.38-.71,3.37,3.37,0,0,1,6.2-2.64c.06.14.11.28.16.42a3.37,3.37,0,0,1,.15,1,3.24,3.24,0,0,1-.22,1.27Zm-28.41,0a3.37,3.37,0,0,1-6.28,0,3.2,3.2,0,0,1-.24-1.22,3.38,3.38,0,1,1,6.75-.37,2.29,2.29,0,0,1,0,.37,3.38,3.38,0,0,1-.22,1.26ZM4.22,32.56l3.21-6.24h2.63v7.1c-2.67.16-4.93.3-6.5.41Zm6.62-9.27a1,1,0,0,1,1-1H19.1a1,1,0,0,1,1,1,1.32,1.32,0,0,0,.06.39H10.78A1.32,1.32,0,0,0,10.84,23.29Zm15.72,3v6.37l-3.77.12c-3.52.12-7,.29-10.09.46v-7Zm-1.35-4.07h4.7a1,1,0,0,1,1,.85v.19a1.34,1.34,0,0,0,.07.39h-8.3a1.34,1.34,0,0,0,.07-.39,3.73,3.73,0,0,0-.16-1Zm9.84,4.07.17.22L40,32.71c-2.68-.12-6.18-.16-10.77-.08V26.32ZM59.24,38.45a1.31,1.31,0,0,0-1.76-.61h0L52,40.52a7.56,7.56,0,0,0-.09-2.42A5.82,5.82,0,0,0,49,34.18c-.47-.28-1.46-.87-5.55-1.24l-6.74-8.75a1.32,1.32,0,0,0-1-.51H33.53a1.32,1.32,0,0,0,.06-.39,3.68,3.68,0,0,0-3.68-3.68h-18A3.69,3.69,0,0,0,8.2,23.28h0a1.34,1.34,0,0,0,.07.39H6.62a1.3,1.3,0,0,0-1.17.72L.15,34.71h0l-.06.14L0,35V46.16a1.32,1.32,0,0,0,1.32,1.32h3.5a6,6,0,0,0,11.78,0H33.23A6.12,6.12,0,0,0,34,49.37L8.43,61.9A1.32,1.32,0,0,0,9,64.4a1.29,1.29,0,0,0,.58-.13L35.92,51.35A6,6,0,0,0,45,47.49h3.35a1.33,1.33,0,0,0,1.08-.56,16.44,16.44,0,0,0,1.63-3l7.56-3.71a1.3,1.3,0,0,0,.63-1.74Z" style="fill: #1c5590"/>
  <path id="Fill-34" d="M57.09,2.64A10.38,10.38,0,0,0,46.72,13c0,3.27,1.91,7.26,5.53,11.54a50.05,50.05,0,0,0,4.84,4.93C59.68,27.19,67.47,19.74,67.47,13A10.4,10.4,0,0,0,57.09,2.64m0,29.89a1.33,1.33,0,0,1-.83-.29c-.49-.4-12.18-9.93-12.18-19.23a13,13,0,0,1,26,0c0,9.3-11.69,18.83-12.19,19.23a1.33,1.33,0,0,1-.83.29" style="fill: #1c5590"/>
  <path id="Fill-36" d="M57.09,10A2.87,2.87,0,1,0,60,12.84,2.87,2.87,0,0,0,57.09,10m0,8.38a5.51,5.51,0,1,1,5.51-5.51h0a5.51,5.51,0,0,1-5.51,5.51h0" style="fill: #1c5590"/>
  <path id="Path-Copy" d="M57.09,10A2.87,2.87,0,1,0,60,12.84,2.87,2.87,0,0,0,57.09,10" style="fill: #fcc42c"/>
</svg>
