<svg width="62" height="54" viewBox="0 0 62 54" fill="none" xmlns="http://www.w3.org/2000/svg">
<g clip-path="url(#clip0_374_14974)">
<path fill-rule="evenodd" clip-rule="evenodd" d="M17.6875 21.0113C15.839 19.724 12.9647 17.6157 12.0882 15.4485C11.7674 12.7694 14.0725 10.1437 15.9133 9.91406C17.7545 9.68434 20.1297 13.0546 20.4506 15.7337C20.7713 18.4115 19.5287 20.7816 17.6875 21.0113Z" fill="#FA9B33"/>
<path d="M52.9209 35.8999H52.4029C51.2642 35.9015 50.2354 35.206 49.7921 34.1351L43.829 19.785C43.825 19.7755 43.8237 19.7655 43.8197 19.756C43.8157 19.7466 43.8091 19.7379 43.8051 19.7284L41.5506 14.2997C41.3002 13.6976 40.6191 13.4165 40.0292 13.6719C39.9957 13.6865 39.9629 13.7025 39.9308 13.7203C36.1688 15.7691 31.5383 15.076 28.5108 12.0113L27.034 10.5032C26.2979 9.78569 26.0093 8.71241 26.2833 7.71169C27.0852 5.10864 26.4003 2.2665 24.507 0.340341C24.0529 -0.116155 23.3232 -0.112635 22.8731 0.347922L15.5387 7.83435H15.5352L9.68749 13.8045L8.01568 15.5103C6.45925 17.0977 6.45818 19.6726 8.01329 21.2614C8.01409 21.2623 8.01488 21.2631 8.01568 21.2639L37.1516 51.0062C37.3685 51.2269 37.5951 51.4332 37.8271 51.6309H10.5103C9.86944 51.6309 9.34984 52.1613 9.34984 52.8154C9.34984 53.4696 9.86944 54 10.5103 54H55.6476C59.1496 53.9962 61.9882 51.101 61.9948 47.5262L62.0001 45.1728V45.1687C61.9858 40.056 57.9295 35.9148 52.9209 35.8999ZM23.5994 2.95558C24.3076 4.17317 24.4784 5.63986 24.0694 6.99311C23.523 8.83723 24.0333 10.8384 25.3908 12.1767L26.8682 13.6849C30.2938 17.1519 35.4126 18.2035 39.8854 16.3591L41.2288 19.592L39.0645 20.5274C38.4741 20.7819 38.1977 21.477 38.4473 22.0797C38.629 22.5188 39.051 22.8039 39.518 22.8031C39.6732 22.8031 39.8268 22.7712 39.9695 22.7089L42.1352 21.7729L43.5211 25.1065L41.3527 26.0438C40.7588 26.2899 40.4732 26.9809 40.7143 27.5871C40.9554 28.1934 41.6323 28.485 42.2262 28.2388C42.237 28.2342 42.2476 28.2296 42.2585 28.2248L44.4277 27.2874L45.8127 30.621L43.6417 31.5591C43.0518 31.8147 42.7765 32.51 43.0266 33.1122C43.2086 33.5497 43.629 33.834 44.0945 33.834C44.2499 33.8346 44.4038 33.8026 44.5467 33.7406L46.7151 32.8019L47.6532 35.0595C48.4593 37.0068 50.33 38.2712 52.401 38.2685H52.9175C56.6462 38.2793 59.6668 41.3616 59.6785 45.1682V46.3379H46.3833C44.3425 46.3422 42.3848 45.5137 40.9458 44.0364L20.4289 23.0958L20.5478 22.9748C23.7068 19.7428 23.7068 14.5107 20.5478 11.2786L17.9967 8.67478L23.5994 2.95558ZM16.3562 10.3491L18.9073 12.9533C21.1613 15.2593 21.1613 18.9925 18.9073 21.2985L18.7879 21.4204L12.1489 14.6441L16.3562 10.3494V10.3491ZM55.6476 51.6328H44.2322C42.1914 51.6376 40.2334 50.8089 38.7947 49.3313L9.65831 19.589C9.00874 18.9262 9.00821 17.8513 9.65752 17.1882C9.65752 17.1882 9.65805 17.1876 9.65831 17.1874L10.5103 16.3196L17.9675 23.9341L39.3029 45.7129C41.1766 47.6367 43.7266 48.7151 46.3841 48.7075H59.5023C58.9886 50.4428 57.4234 51.6306 55.6476 51.633V51.6328Z" fill="#1C5590"/>
<path d="M2.28763 5.55972H10.3045C10.9453 5.55972 11.465 5.02931 11.465 4.37516C11.465 3.72101 10.9453 3.1906 10.3045 3.1906H2.28763C1.6468 3.1906 1.1272 3.72101 1.1272 4.37516C1.1272 5.02931 1.6468 5.55972 2.28763 5.55972Z" fill="#1C5590"/>
<path d="M22.7691 41.0451C22.7693 40.3912 22.2505 39.8608 21.61 39.8605H8.09915C7.45833 39.8605 6.93872 40.391 6.93872 41.0451C6.93872 41.6992 7.45833 42.2297 8.09915 42.2297H21.6084C22.2489 42.2299 22.7685 41.7003 22.7688 41.0465V41.0451H22.7691Z" fill="#1C5590"/>
<path d="M9.38819 26.4351C9.38846 25.7812 8.86965 25.2508 8.22909 25.2505H1.16043C0.519606 25.2505 0 25.7809 0 26.4351C0 27.0892 0.519606 27.6196 1.16043 27.6196H8.22777C8.86832 27.6199 9.38793 27.0903 9.38819 26.4364V26.4351Z" fill="#1C5590"/>
</g>
<defs>
<clipPath id="clip0_374_14974">
<rect width="62" height="54" fill="white"/>
</clipPath>
</defs>
</svg>
